<svg xmlns="http://www.w3.org/2000/svg" id="Layer_1" data-name="Layer 1" viewBox="0 0 309 69"><defs><linearGradient id="linear-gradient" x1="217.77" x2="268.96" y1="26.65" y2="-2.9" gradientTransform="matrix(1 0 -.09 1 -205.62 0)" gradientUnits="userSpaceOnUse"><stop offset="0" stop-color="#fff"/><stop offset=".3" stop-color="#ea8b1c"/><stop offset=".5" stop-color="#ffe600"/><stop offset=".6" stop-color="#ffe600"/><stop offset="1" stop-color="#ea8b1c"/></linearGradient><linearGradient id="linear-gradient-2" x1="215.54" x2="266.72" y1="38.07" y2="8.52" gradientTransform="matrix(1 0 -.09 1 -200.37 0)" gradientUnits="userSpaceOnUse"><stop offset="0" stop-color="#fff"/><stop offset=".3" stop-color="#213368"/><stop offset=".5" stop-color="#213368"/><stop offset=".6" stop-color="#0056a2" stop-opacity=".99"/><stop offset=".7" stop-color="#0056a2" stop-opacity=".99"/><stop offset="1" stop-color="#213368"/></linearGradient><linearGradient id="linear-gradient-3" x1="213.31" x2="264.49" y1="49.49" y2="19.93" gradientTransform="matrix(1 0 -.09 1 -195.12 0)" gradientUnits="userSpaceOnUse"><stop offset="0" stop-color="#fff"/><stop offset=".4" stop-color="#a60336"/><stop offset=".5" stop-color="#a60336"/><stop offset=".7" stop-color="#ec1651"/><stop offset=".81" stop-color="#ec1651"/><stop offset="1" stop-color="#a60336"/></linearGradient><style>.cls-5{fill:#213368}</style></defs><path fill="url(#linear-gradient)" d="M66.33 17.79C46.17 6.27 26 31.59 5.85 18.54L7.08 6a23.22 23.22 0 0 0 12.2 3.09c16.1-.26 32.19-14.29 48.29-3.87q-.57 6.26-1.24 12.57Z"/><path fill="url(#linear-gradient-2)" d="M68.35 29.2C48.19 17.69 28 43 7.86 30L9.1 17.39c20.16 11.51 40.32-13.81 60.48-.75Q69 22.89 68.35 29.2Z"/><path fill="url(#linear-gradient-3)" d="M70.37 40.62C50.2 29.1 30 54.42 9.88 41.37q.61-6.25 1.23-12.57C31.28 40.32 51.44 15 71.6 28.05q-.6 6.26-1.23 12.57Z"/><path fill="#fff" d="m35.49 18.83.63.8 1.01-.44-.62.94.63.8-1.01-.22-.61.94-.01-1.08-1.01-.22 1-.44-.01-1.08zm-3.59 2.42.89.48.82-.77-.27 1.07.89.49-1.06.18-.26 1.07-.39-.96-1.05.17.82-.77-.39-.96zm-2.63 3.42 1.03.12.54-.98.09 1.06 1.03.13-.96.53.09 1.07-.69-.74-.97.53.54-.98-.7-.74zm-1.42 4.08 1.03-.27.17-1.09.47.92 1.04-.28-.74.85.48.91-.94-.39-.74.84.16-1.09-.93-.4zm11.61-10.99-.32 1.05-1.06.12.87.53-.32 1.06.85-.72.87.54-.34-.99.85-.72-1.06.11-.34-.98zm4.05.33-.65.91-.99-.28.59.84-.65.9 1.01-.38.6.83.03-1.07 1.02-.39-.99-.28.03-1.08zm3.51 1.76-.9.65-.8-.63.25 1.03-.89.65 1.05-.02.25 1.03.4-1.04 1.05-.01-.8-.63.39-1.03zm2.62 2.99-1.03.28-.5-.91-.14 1.09-1.03.28.94.39-.13 1.08.72-.84.95.38-.5-.91.72-.84z"/><path d="M8.67 55a1 1 0 0 1-.3 0 1.23 1.23 0 0 1-.29-.13 1.91 1.91 0 0 1-.3-.22c-.1-.1-.21-.21-.32-.34s-.22-.28-.33-.44h-.46V55h-.82v-3.42h1.34a3.3 3.3 0 0 1 .68.06 1.36 1.36 0 0 1 .47.18.75.75 0 0 1 .26.33 1.14 1.14 0 0 1 .09.48 1.19 1.19 0 0 1-.09.49.86.86 0 0 1-.25.34 1.52 1.52 0 0 1-.38.2l.23.27a1.59 1.59 0 0 0 .22.18.84.84 0 0 0 .19.12.57.57 0 0 0 .18 0h.07V55h-.2Zm-1.49-1.76a1.28 1.28 0 0 0 .29 0 .51.51 0 0 0 .21-.1.4.4 0 0 0 .12-.14.68.68 0 0 0 0-.26.61.61 0 0 0-.06-.3.35.35 0 0 0-.19-.17 1.25 1.25 0 0 0-.38 0h-.5v1.05h.51ZM9.23 55v-3.42h2.43v.7H10v.64h1.49v.66H10v.71h1.71V55Zm2.9 0v-3.4h1.33a3.92 3.92 0 0 1 .75.06 1.08 1.08 0 0 1 .47.22.83.83 0 0 1 .24.38 1.82 1.82 0 0 1 .08.57 2.34 2.34 0 0 1-.07.57 1 1 0 0 1-.23.4 1 1 0 0 1-.41.23 2.28 2.28 0 0 1-.63.07H13v.9Zm.87-2.8v1.18h.46a2.06 2.06 0 0 0 .39 0 .46.46 0 0 0 .22-.11.43.43 0 0 0 .11-.2 1.42 1.42 0 0 0 0-.31.9.9 0 0 0 0-.25.32.32 0 0 0-.1-.17.35.35 0 0 0-.19-.1 1.39 1.39 0 0 0-.32 0H13Zm2.33 1.67v-2.29h.81v2.3a.54.54 0 0 0 0 .19.34.34 0 0 0 .09.14l.13.09.17.05H17a.67.67 0 0 0 .17-.06.3.3 0 0 0 .13-.09.43.43 0 0 0 .09-.13.58.58 0 0 0 0-.19v-2.3h.81v2.29a1.46 1.46 0 0 1-.06.44 1.06 1.06 0 0 1-.19.33.88.88 0 0 1-.28.22 2.09 2.09 0 0 1-.4.12 2.71 2.71 0 0 1-.51 0 2.56 2.56 0 0 1-.49 0 2 2 0 0 1-.39-.12 1 1 0 0 1-.3-.22.88.88 0 0 1-.18-.33 1.46 1.46 0 0 1-.07-.44Zm1.13-2.5.42-.9h.78l-.6.9ZM18.68 55v-3.4H20a2.63 2.63 0 0 1 .76.08.77.77 0 0 1 .42.27.74.74 0 0 1 .13.46.86.86 0 0 1-.12.47.79.79 0 0 1-.37.29 1 1 0 0 1 .5.32.85.85 0 0 1 .18.55 1.13 1.13 0 0 1-.09.47.68.68 0 0 1-.25.33 1.17 1.17 0 0 1-.45.18A4.49 4.49 0 0 1 20 55h-1Zm.83-2h.66a.39.39 0 0 0 .2 0 .32.32 0 0 0 .14-.14.42.42 0 0 0 0-.2.39.39 0 0 0-.06-.23.33.33 0 0 0-.17-.13 1.09 1.09 0 0 0-.34 0h-.48Zm0 1.36H20a1.56 1.56 0 0 0 .42 0 .37.37 0 0 0 .2-.13.46.46 0 0 0 .06-.25.38.38 0 0 0-.12-.3.64.64 0 0 0-.38-.1h-.65Zm2.36.64v-3.42h.83v2.68h1.52V55Zm2.7 0v-3.42h.82V55Zm1.23-1.67a2.47 2.47 0 0 1 .18-1 1.15 1.15 0 0 1 .55-.58 2.14 2.14 0 0 1 .93-.18h.56a.85.85 0 0 1 .24 0l.24.06-.17.65-.28-.06h-.52a1.27 1.27 0 0 0-.41.06.64.64 0 0 0-.27.18.9.9 0 0 0-.16.34 2.47 2.47 0 0 0-.05.52 1.65 1.65 0 0 0 .05.47.69.69 0 0 0 .15.31.62.62 0 0 0 .27.17 1.62 1.62 0 0 0 .4 0h.45a2.63 2.63 0 0 0 .44-.09l.14.64-.23.07L28 55a3 3 0 0 1-.31 0h-.36a2.29 2.29 0 0 1-.68-.09 1.1 1.1 0 0 1-.79-.82 2.85 2.85 0 0 1-.06-.76ZM28.7 55l1.07-3.4h1l1.08 3.4H31l-.18-.63h-1l-.19.63Zm1.19-1.3h.73l-.37-1.47Zm3.49 1.3v-3.4h1.32a2.63 2.63 0 0 1 .76.08.69.69 0 0 1 .55.73.86.86 0 0 1-.12.47.79.79 0 0 1-.37.29.93.93 0 0 1 .5.32.85.85 0 0 1 .18.55 1.32 1.32 0 0 1-.08.47.77.77 0 0 1-.26.33 1.17 1.17 0 0 1-.45.18 4.49 4.49 0 0 1-.7.05h-1Zm.82-2h.66a.39.39 0 0 0 .2 0 .32.32 0 0 0 .14-.14.42.42 0 0 0 0-.2.39.39 0 0 0-.06-.23.29.29 0 0 0-.17-.13 1.05 1.05 0 0 0-.34 0h-.43Zm0 1.36h.47a1.56 1.56 0 0 0 .42 0 .34.34 0 0 0 .2-.13.46.46 0 0 0 .06-.25.38.38 0 0 0-.12-.3.62.62 0 0 0-.38-.1h-.65ZM38 55a2.2 2.2 0 0 1-.53-.06 1.57 1.57 0 0 1-.44-.18 1 1 0 0 1-.31-.33 1.57 1.57 0 0 1-.2-.49 2.73 2.73 0 0 1-.07-.68 3.37 3.37 0 0 1 .06-.68 1.86 1.86 0 0 1 .19-.49 1.44 1.44 0 0 1 .32-.33 1.58 1.58 0 0 1 .44-.19 2.92 2.92 0 0 1 .54-.05 3 3 0 0 1 .55.05 1.13 1.13 0 0 1 .43.19 1.08 1.08 0 0 1 .32.32 1.93 1.93 0 0 1 .19.5 3.26 3.26 0 0 1 .06.67 3.37 3.37 0 0 1-.06.68 1.63 1.63 0 0 1-.2.5 1 1 0 0 1-.32.33 1.3 1.3 0 0 1-.43.18A2.23 2.23 0 0 1 38 55Zm0-.64a.88.88 0 0 0 .24 0 .43.43 0 0 0 .2-.11.62.62 0 0 0 .15-.2 1.74 1.74 0 0 0 .1-.32 2.81 2.81 0 0 0 0-.45 2.94 2.94 0 0 0 0-.44 1.62 1.62 0 0 0-.1-.31.53.53 0 0 0-.15-.2.45.45 0 0 0-.19-.11 1 1 0 0 0-.25 0 1 1 0 0 0-.24 0 .69.69 0 0 0-.19.1.83.83 0 0 0-.16.2 1.22 1.22 0 0 0-.09.32 2.55 2.55 0 0 0 0 .9 1.25 1.25 0 0 0 .1.31.78.78 0 0 0 .14.2.56.56 0 0 0 .2.11.88.88 0 0 0 .24.02Zm1.93.64v-3.42h.83v2.68h1.52V55Zm2.7 0v-3.42h.82V55Zm2.19 0-1.1-3.38h.91l.68 2.68.69-2.72h.9L45.79 55Zm1.77 0 1.07-3.4h1l1.07 3.4h-.89l-.19-.63h-1l-.18.63Zm1.18-1.3h.73l-.37-1.47Zm5.08 1.3a1 1 0 0 1-.3 0 1.3 1.3 0 0 1-.3-.13l-.3-.22a3.49 3.49 0 0 1-.31-.34c-.11-.13-.22-.28-.34-.44h-.45V55H50v-3.42h1.33a3.4 3.4 0 0 1 .69.06 1.3 1.3 0 0 1 .46.18.86.86 0 0 1 .27.33 1.15 1.15 0 0 1 .08.48 1.19 1.19 0 0 1-.09.49.86.86 0 0 1-.25.34 1.37 1.37 0 0 1-.38.2 3.27 3.27 0 0 0 .24.27 1.12 1.12 0 0 0 .21.18.84.84 0 0 0 .19.12.57.57 0 0 0 .18 0H53V55h-.19Zm-1.5-1.78a1.37 1.37 0 0 0 .3 0 .42.42 0 0 0 .2-.1A.34.34 0 0 0 52 53a1 1 0 0 0 0-.26.61.61 0 0 0-.06-.3.38.38 0 0 0-.2-.17 1.25 1.25 0 0 0-.38 0h-.53v1.05h.5ZM53.4 55v-3.42h.82V55Zm1.12 0 1.07-3.4h1l1.08 3.4h-.9l-.18-.63h-1l-.18.63Zm1.19-1.3h.73l-.37-1.47ZM58 55v-3.42h.77L60 53.71v-2.13h.73V55H60l-1.3-2.11V55Zm3.05 0 1.07-3.4h1L64.2 55h-.9l-.18-.63h-1l-.18.63Zm1.19-1.3H63l-.4-1.5ZM67 55h-1.31v-3.4H67a2.24 2.24 0 0 1 1 .18 1.11 1.11 0 0 1 .53.56 2.57 2.57 0 0 1 .17 1 2.37 2.37 0 0 1-.18 1 1.24 1.24 0 0 1-.54.57A2 2 0 0 1 67 55Zm.06-.64a.61.61 0 0 0 .64-.46 1.85 1.85 0 0 0 .09-.64 2.25 2.25 0 0 0-.08-.65.65.65 0 0 0-.25-.34.77.77 0 0 0-.42-.11h-.52v2.15h.54Zm2.02.64v-3.42h2.43v.7H69.9v.64h1.48v.66H69.9v.71h1.7V55ZM8.5 67.51l-2.65-8.1h2.18l1.63 6.4 1.61-6.4h2.16l-2.61 8.1Zm5.57 0v-8.12h5.81v1.67H16v1.53h3.56v1.58H16v1.69h4.1v1.65Zm6.93 0v-8.13h1.85L26 64.49v-5.1h1.73v8.13h-1.89l-3.07-5v5Zm8 0v-8.12h5.82v1.67h-3.9v1.53h3.56v1.58h-3.56v1.69H35v1.65Zm6.59 0v-1.57L39.65 61H35.8v-1.61H42V61l-4 5h4.22v1.59ZM43 64.88v-5.49h1.94v5.51a1.25 1.25 0 0 0 .07.45.93.93 0 0 0 .21.33 1.48 1.48 0 0 0 .32.21 1.39 1.39 0 0 0 .41.12 2.42 2.42 0 0 0 .47 0 3.75 3.75 0 0 0 .5 0 1.57 1.57 0 0 0 .4-.13 1.16 1.16 0 0 0 .31-.22.92.92 0 0 0 .2-.32 1.23 1.23 0 0 0 .08-.44v-5.51h1.94v5.49a3.41 3.41 0 0 1-.15 1.05 2.47 2.47 0 0 1-.44.78 2 2 0 0 1-.69.52 3.93 3.93 0 0 1-.95.3 7.55 7.55 0 0 1-1.21.09 7.13 7.13 0 0 1-1.17-.09 4.23 4.23 0 0 1-1-.3 2.33 2.33 0 0 1-.71-.52 2.27 2.27 0 0 1-.43-.78 3.41 3.41 0 0 1-.1-1.05Zm8 2.63v-8.12h5.82v1.67H53v1.53h3.55v1.58H53v1.69h4.08v1.65Zm7 0v-8.12h2v6.41h3.64v1.71Zm6 0 2.56-8.15h2.34l2.61 8.15h-2.14L68.93 66h-2.47L66 67.51Zm2.84-3.12h1.75l-.88-3.51Z" class="cls-5"/><path fill="#666" d="M104.78 20.92v-8.77h1.44l2.59 4.39 2.61-4.39h1.36v8.77h-1.28v-6.64l-2.4 4h-.66l-2.38-4v6.63ZM115 13a1 1 0 0 1-.63-.16.7.7 0 0 1-.19-.56.67.67 0 0 1 .19-.54.93.93 0 0 1 .63-.17.92.92 0 0 1 .62.17.67.67 0 0 1 .19.54.7.7 0 0 1-.19.56 1 1 0 0 1-.62.16Zm-.69 7.9v-6.73h1.36v6.75Zm2.78.02v-6.75h1.24v.59a7.15 7.15 0 0 1 .79-.39 5.15 5.15 0 0 1 .76-.24 3.57 3.57 0 0 1 .8-.09 2.42 2.42 0 0 1 1.07.22 1.42 1.42 0 0 1 .63.65 2.12 2.12 0 0 1 .22 1v5h-1.36v-4.6a1.14 1.14 0 0 0-.28-.84 1.1 1.1 0 0 0-.83-.28 2.6 2.6 0 0 0-.56.06 3.5 3.5 0 0 0-.55.17 4.7 4.7 0 0 0-.57.25v5.24Zm7.62-7.92a1 1 0 0 1-.62-.16.7.7 0 0 1-.19-.56.67.67 0 0 1 .19-.54.92.92 0 0 1 .62-.17 1 1 0 0 1 .63.17.7.7 0 0 1 .19.54.74.74 0 0 1-.19.56 1 1 0 0 1-.63.16Zm-.69 7.9v-6.73h1.37v6.75Zm2.34-.25.2-1a3.81 3.81 0 0 0 .47.14 4.78 4.78 0 0 0 .57.12c.2 0 .4.06.6.08s.4 0 .58 0a1.84 1.84 0 0 0 1-.22.74.74 0 0 0 .33-.65.65.65 0 0 0-.11-.4 1 1 0 0 0-.33-.29 4.27 4.27 0 0 0-.55-.24 6.67 6.67 0 0 0-.76-.21 4 4 0 0 1-.78-.27 2.24 2.24 0 0 1-.58-.41 1.6 1.6 0 0 1-.36-.54 2 2 0 0 1-.12-.71 1.8 1.8 0 0 1 .66-1.5 3.1 3.1 0 0 1 1.93-.52 5.78 5.78 0 0 1 .75.05 6.45 6.45 0 0 1 .66.12 5.94 5.94 0 0 1 .58.16l-.19 1-.53-.14a4.65 4.65 0 0 0-.58-.1 4.93 4.93 0 0 0-.69 0 1.71 1.71 0 0 0-1 .22.71.71 0 0 0-.32.61.67.67 0 0 0 .11.39.88.88 0 0 0 .31.25 3.46 3.46 0 0 0 .5.2l.65.18a6.83 6.83 0 0 1 .84.29 2.7 2.7 0 0 1 .65.37 1.52 1.52 0 0 1 .42.55 2.19 2.19 0 0 1 .14.82 2.3 2.3 0 0 1-.12.77 1.54 1.54 0 0 1-.38.58 3 3 0 0 1-.59.39 3.14 3.14 0 0 1-.75.23 4.94 4.94 0 0 1-.89.07 7.81 7.81 0 0 1-.83 0 6.85 6.85 0 0 1-.81-.13 5.77 5.77 0 0 1-.68-.26Zm8.37.35a2.09 2.09 0 0 1-1-.24 1.48 1.48 0 0 1-.64-.73 3.46 3.46 0 0 1-.2-1.26v-3.6h-1.09v-.89l1.09-.11.17-1.54h1.18v1.54h2.08v1h-2.08v3.53a1.36 1.36 0 0 0 .24.91 1 1 0 0 0 .76.27 3.29 3.29 0 0 0 .54-.05 4.56 4.56 0 0 0 .59-.14l.18 1a7 7 0 0 1-.93.23 5 5 0 0 1-.89.08Zm5.17 0a3.92 3.92 0 0 1-1.3-.19 2.41 2.41 0 0 1-.95-.6 2.47 2.47 0 0 1-.59-1 4.76 4.76 0 0 1-.2-1.49 5.43 5.43 0 0 1 .24-1.72 2.77 2.77 0 0 1 .68-1.14 2.45 2.45 0 0 1 1-.62 4 4 0 0 1 1.27-.2 2.59 2.59 0 0 1 2 .71 3.22 3.22 0 0 1 .65 2.27v.55l-.73.06-1 .08-1.25.07h-1.41a.41.41 0 0 0 0 .11V18a2.5 2.5 0 0 0 .21 1.11 1.29 1.29 0 0 0 .63.61 2.42 2.42 0 0 0 1 .19 7 7 0 0 0 .78 0l.8-.11c.26-.05.51-.1.73-.16l.18 1a6.15 6.15 0 0 1-.82.2 8.46 8.46 0 0 1-.9.14 8.13 8.13 0 0 1-1.02.02Zm-1.62-4.14h3.06a3 3 0 0 0-.17-1 1 1 0 0 0-.45-.55 1.56 1.56 0 0 0-.76-.16 2.1 2.1 0 0 0-.56.07 1.19 1.19 0 0 0-.51.29 1.64 1.64 0 0 0-.39.57 3 3 0 0 0-.22.82Zm6.79-2.69V15a5 5 0 0 1 .67-.56 2.57 2.57 0 0 1 .65-.31 2.61 2.61 0 0 1 .69-.1 3.89 3.89 0 0 1 .47 0 2.3 2.3 0 0 1 .47.1l-.22 1.24a3.55 3.55 0 0 0-.47-.09h-.43a2.42 2.42 0 0 0-.82.15 3.26 3.26 0 0 0-.9.56v4.91h-1.35v-6.73Zm4.39-1.17a1 1 0 0 1-.62-.16.7.7 0 0 1-.19-.56.67.67 0 0 1 .19-.54.92.92 0 0 1 .62-.17 1 1 0 0 1 .63.17.7.7 0 0 1 .19.54.74.74 0 0 1-.19.56 1 1 0 0 1-.63.16Zm-.69 7.9v-6.73h1.37v6.75Zm2.51-3.36a6.83 6.83 0 0 1 .15-1.53 2.85 2.85 0 0 1 .51-1.08 2.17 2.17 0 0 1 .94-.66 4.69 4.69 0 0 1 2.9 0 2.11 2.11 0 0 1 .94.66 2.58 2.58 0 0 1 .51 1.08 6.78 6.78 0 0 1 .16 1.53 6.44 6.44 0 0 1-.17 1.55 2.89 2.89 0 0 1-.53 1.1 2.32 2.32 0 0 1-.94.64 4.87 4.87 0 0 1-2.83 0 2.25 2.25 0 0 1-.94-.64 2.76 2.76 0 0 1-.53-1.1 6 6 0 0 1-.17-1.55Zm1.39 0a4.86 4.86 0 0 0 .17 1.46 1.29 1.29 0 0 0 .54.77 1.74 1.74 0 0 0 1 .23 1.69 1.69 0 0 0 .95-.23 1.38 1.38 0 0 0 .54-.77 5.26 5.26 0 0 0 .16-1.46 5.6 5.6 0 0 0-.15-1.45 1.32 1.32 0 0 0-.52-.76 1.71 1.71 0 0 0-1-.23 1.76 1.76 0 0 0-1 .23 1.29 1.29 0 0 0-.53.76 5.6 5.6 0 0 0-.16 1.45Zm13.49 3.39-.16-.58a4.5 4.5 0 0 1-1.06.52 3.24 3.24 0 0 1-1.07.17 1.9 1.9 0 0 1-1.68-.87 4.35 4.35 0 0 1-.6-2.48 5.48 5.48 0 0 1 .33-2.06 2.45 2.45 0 0 1 1-1.19 3.5 3.5 0 0 1 1.74-.4h.64a4.07 4.07 0 0 1 .67.11v-2.5h1.36v9.28Zm-.16-1.56v-4.16a4.53 4.53 0 0 0-.65-.12h-.54a2 2 0 0 0-1 .24 1.45 1.45 0 0 0-.59.79 5 5 0 0 0-.18 1.48 4.39 4.39 0 0 0 .16 1.3 1.54 1.54 0 0 0 .47.77 1.11 1.11 0 0 0 .74.25 2.94 2.94 0 0 0 .51-.05 2.11 2.11 0 0 0 .52-.17 6.52 6.52 0 0 0 .56-.33Zm5.53 1.63a3.89 3.89 0 0 1-1.29-.19 2.41 2.41 0 0 1-1-.6 2.38 2.38 0 0 1-.6-1 5.07 5.07 0 0 1-.2-1.49 5.43 5.43 0 0 1 .24-1.73 2.89 2.89 0 0 1 .68-1.14 2.59 2.59 0 0 1 1-.62 4 4 0 0 1 1.28-.2 2.61 2.61 0 0 1 2 .71 3.27 3.27 0 0 1 .65 2.27 2.45 2.45 0 0 1 0 .25 2.66 2.66 0 0 1 0 .3l-.73.06-1 .08-1.26.07h-1.41V18a2.36 2.36 0 0 0 .22 1.11 1.31 1.31 0 0 0 .62.61 2.45 2.45 0 0 0 1 .19 7 7 0 0 0 .78 0l.8-.11c.27-.05.51-.1.74-.16l.17 1a6 6 0 0 1-.81.2 8.65 8.65 0 0 1-.91.14 8 8 0 0 1-.97.02Zm-1.61-4.14h3.05a3 3 0 0 0-.16-1 1 1 0 0 0-.45-.55 1.58 1.58 0 0 0-.76-.16 2.17 2.17 0 0 0-.57.07 1.32 1.32 0 0 0-.51.29 1.79 1.79 0 0 0-.39.57 2.72 2.72 0 0 0-.21.82Zm6.9-5.21v7.25a1.72 1.72 0 0 0 .08.62.45.45 0 0 0 .25.27.88.88 0 0 0 .33.06 1.46 1.46 0 0 0 .29 0 2.14 2.14 0 0 0 .32-.08l.14 1.05a1.87 1.87 0 0 1-.52.18 3.08 3.08 0 0 1-.61.06 2 2 0 0 1-.89-.18 1.22 1.22 0 0 1-.56-.62 3.15 3.15 0 0 1-.2-1.23v-7.38Zm5.58 9.27v-8.78c.52 0 1-.06 1.38-.07h1.63a8.57 8.57 0 0 1 1.83.16 2.53 2.53 0 0 1 1.13.52 1.91 1.91 0 0 1 .58.91 4.9 4.9 0 0 1 .15 1.34 4.61 4.61 0 0 1-.19 1.42 2.13 2.13 0 0 1-.57 1 2.42 2.42 0 0 1-1 .55 5.24 5.24 0 0 1-1.53.19h-1.98V21Zm1.4-7.73V17h1.57a5.11 5.11 0 0 0 1.14-.11 1.58 1.58 0 0 0 .7-.34 1.47 1.47 0 0 0 .36-.64 3.62 3.62 0 0 0 .11-.94 2.86 2.86 0 0 0-.1-.83 1.39 1.39 0 0 0-.34-.55 1.47 1.47 0 0 0-.66-.33 4.54 4.54 0 0 0-1.08-.11h-1.1Zm5.91 4.35a6.25 6.25 0 0 1 .16-1.53 2.7 2.7 0 0 1 .5-1.08 2.23 2.23 0 0 1 .94-.66 4.08 4.08 0 0 1 1.45-.23 4.14 4.14 0 0 1 1.46.23 2.23 2.23 0 0 1 .94.66 2.7 2.7 0 0 1 .5 1.08 6.25 6.25 0 0 1 .16 1.53 6.44 6.44 0 0 1-.17 1.55 2.76 2.76 0 0 1-.53 1.1 2.25 2.25 0 0 1-.94.64 4.17 4.17 0 0 1-1.42.21 4.09 4.09 0 0 1-1.4-.21 2.22 2.22 0 0 1-1-.64 2.76 2.76 0 0 1-.53-1.1 6.44 6.44 0 0 1-.12-1.55Zm1.39 0a5.21 5.21 0 0 0 .17 1.46 1.29 1.29 0 0 0 .54.77 2.1 2.1 0 0 0 1.91 0 1.32 1.32 0 0 0 .53-.77 5.21 5.21 0 0 0 .17-1.46 5.53 5.53 0 0 0-.16-1.45 1.26 1.26 0 0 0-.51-.76 1.77 1.77 0 0 0-1-.23 1.8 1.8 0 0 0-1 .23 1.27 1.27 0 0 0-.52.76 5.14 5.14 0 0 0-.13 1.45Zm10.14 3.39-.16-.58a4.55 4.55 0 0 1-1.07.52A3.14 3.14 0 0 1 199 21a1.93 1.93 0 0 1-1.69-.87 4.43 4.43 0 0 1-.59-2.48 5.48 5.48 0 0 1 .33-2.06 2.35 2.35 0 0 1 1-1.19 3.5 3.5 0 0 1 1.74-.4h.63a3.75 3.75 0 0 1 .67.11v-2.46h1.37v9.28Zm-.18-1.56v-4.16a4.18 4.18 0 0 0-.64-.12h-.54a2 2 0 0 0-1 .24 1.4 1.4 0 0 0-.59.79 4.93 4.93 0 0 0-.19 1.48 4.36 4.36 0 0 0 .17 1.3 1.54 1.54 0 0 0 .47.77 1.11 1.11 0 0 0 .74.25 2.94 2.94 0 0 0 .51-.05 2.25 2.25 0 0 0 .52-.17c.15-.11.35-.21.55-.33Zm5.55 1.63a4 4 0 0 1-1.3-.19 2.39 2.39 0 0 1-1.54-1.63 4.76 4.76 0 0 1-.2-1.49 5.43 5.43 0 0 1 .24-1.73 2.77 2.77 0 0 1 .68-1.14 2.52 2.52 0 0 1 1-.62 4 4 0 0 1 1.27-.2 2.63 2.63 0 0 1 2 .71 3.27 3.27 0 0 1 .65 2.27v.25a2.66 2.66 0 0 1 0 .3l-.73.06-1 .08-1.25.07h-1.41a.41.41 0 0 0 0 .11V18a2.5 2.5 0 0 0 .21 1.11 1.29 1.29 0 0 0 .63.61 2.42 2.42 0 0 0 1 .19 7 7 0 0 0 .78 0l.8-.11c.26-.05.51-.1.73-.16l.18 1a6 6 0 0 1-.81.2 9.07 9.07 0 0 1-.91.14 8.13 8.13 0 0 1-1.02.02ZM205 16.9h3.05a3 3 0 0 0-.16-1 1 1 0 0 0-.45-.55 1.6 1.6 0 0 0-.77-.16 2.1 2.1 0 0 0-.56.07 1.32 1.32 0 0 0-.51.29 1.79 1.79 0 0 0-.39.57 2.72 2.72 0 0 0-.21.78Zm6.78-2.73V15a4.44 4.44 0 0 1 .68-.56 2.36 2.36 0 0 1 .64-.31 2.63 2.63 0 0 1 .7-.1 4.07 4.07 0 0 1 .47 0 2.36 2.36 0 0 1 .46.1l-.22 1.24a3.73 3.73 0 0 0-.46-.09h-.44a2.42 2.42 0 0 0-.82.15 3.26 3.26 0 0 0-.9.56v4.91h-1.35v-6.73Zm7.22 6.75v-8.78l1.38-.07H222a8.41 8.41 0 0 1 1.82.16 2.57 2.57 0 0 1 1.14.52 1.82 1.82 0 0 1 .57.91 4.9 4.9 0 0 1 .17 1.38 5 5 0 0 1-.18 1.42 2.06 2.06 0 0 1-.58 1 2.38 2.38 0 0 1-1 .55 5.31 5.31 0 0 1-1.54.19h-1.97v2.84Zm1.41-7.73V17h1.56a5.14 5.14 0 0 0 1.15-.11 1.6 1.6 0 0 0 .69-.34 1.3 1.3 0 0 0 .36-.64 3.21 3.21 0 0 0 .12-.94 2.83 2.83 0 0 0-.11-.83 1.2 1.2 0 0 0-.34-.55 1.37 1.37 0 0 0-.66-.33 4.51 4.51 0 0 0-1.07-.11H221Zm5.85 4.35a6.78 6.78 0 0 1 .16-1.53 2.71 2.71 0 0 1 .51-1.08 2.11 2.11 0 0 1 .94-.66 4.69 4.69 0 0 1 2.9 0 2.17 2.17 0 0 1 .94.66 2.85 2.85 0 0 1 .51 1.08 6.83 6.83 0 0 1 .15 1.53 6 6 0 0 1-.17 1.55 2.76 2.76 0 0 1-.53 1.1 2.19 2.19 0 0 1-.94.64 4.11 4.11 0 0 1-1.41.21 4.19 4.19 0 0 1-1.41-.21 2.19 2.19 0 0 1-.94-.64 2.77 2.77 0 0 1-.54-1.1 6.44 6.44 0 0 1-.17-1.55Zm1.39 0a5.21 5.21 0 0 0 .17 1.46 1.35 1.35 0 0 0 .55.77 1.74 1.74 0 0 0 .95.23 1.69 1.69 0 0 0 1-.23 1.32 1.32 0 0 0 .53-.77 4.86 4.86 0 0 0 .17-1.46 5.6 5.6 0 0 0-.15-1.45 1.32 1.32 0 0 0-.52-.76 1.73 1.73 0 0 0-1-.23 1.76 1.76 0 0 0-1 .23 1.29 1.29 0 0 0-.53.76 5.53 5.53 0 0 0-.17 1.45Zm5.86 6.01v-9.42h1.24v.64a5.19 5.19 0 0 1 1.12-.54A3.49 3.49 0 0 1 237 14a1.9 1.9 0 0 1 1.67.87 4.37 4.37 0 0 1 .59 2.49 5.22 5.22 0 0 1-.34 2.05 2.34 2.34 0 0 1-1 1.2 3.43 3.43 0 0 1-1.73.39h-.61c-.22 0-.45-.06-.69-.11v2.65Zm2.56-3.55a1.87 1.87 0 0 0 1-.24 1.48 1.48 0 0 0 .6-.8 4.66 4.66 0 0 0 .2-1.49 4.37 4.37 0 0 0-.16-1.31 1.66 1.66 0 0 0-.47-.77 1.22 1.22 0 0 0-.76-.25 2.76 2.76 0 0 0-.51.05 2.86 2.86 0 0 0-.52.17 5.91 5.91 0 0 0-.57.32v4.16l.64.12a3.65 3.65 0 0 0 .55.04Zm6.22 1a2.23 2.23 0 0 1-1-.21 1.47 1.47 0 0 1-.65-.63 2 2 0 0 1-.24-1.05v-5h1.35v4.68a1 1 0 0 0 .28.78 1.1 1.1 0 0 0 .78.26 3.12 3.12 0 0 0 .55-.05 2.32 2.32 0 0 0 .53-.17l.54-.25v-5.19h1.34v5.08a1 1 0 0 0 .06.38.47.47 0 0 0 .16.2.36.36 0 0 0 .2.06.57.57 0 0 0 .32-.09l.14 1-.29.13a1.59 1.59 0 0 1-.36.07 2.47 2.47 0 0 1-.39 0 1.17 1.17 0 0 1-.64-.18 1.07 1.07 0 0 1-.42-.53 5.56 5.56 0 0 1-.73.37 3.91 3.91 0 0 1-.75.26 4.28 4.28 0 0 1-.78.08Zm6.48-9.35v7.25a1.69 1.69 0 0 0 .09.62.45.45 0 0 0 .25.27.88.88 0 0 0 .33.06 1.52 1.52 0 0 0 .29 0 2.49 2.49 0 0 0 .32-.08l.14 1.05a2 2 0 0 1-.52.18 3.08 3.08 0 0 1-.61.06 2 2 0 0 1-.89-.18 1.22 1.22 0 0 1-.56-.62 3.15 3.15 0 0 1-.2-1.23v-7.38Zm1.78 7.58a1.66 1.66 0 0 1 1-1.64 5.27 5.27 0 0 1 1.24-.36 17.32 17.32 0 0 1 1.74-.21v-.77a.91.91 0 0 0-.35-.78 1.76 1.76 0 0 0-1.05-.26h-.57l-.67.09c-.23 0-.47.1-.71.16l-.18-1.05a7.14 7.14 0 0 1 1.15-.27 7.74 7.74 0 0 1 1.12-.1 4.09 4.09 0 0 1 1.52.25 1.74 1.74 0 0 1 .88.73 2.37 2.37 0 0 1 .29 1.2v3a.84.84 0 0 0 .12.53.38.38 0 0 0 .29.14h.16a.85.85 0 0 0 .17-.06l.12 1a1.63 1.63 0 0 1-.43.18 1.72 1.72 0 0 1-.52.07 1.18 1.18 0 0 1-.76-.22 1.29 1.29 0 0 1-.39-.68 7.66 7.66 0 0 1-.66.45 3.31 3.31 0 0 1-.77.33 3.36 3.36 0 0 1-.92.12 2 2 0 0 1-.71-.12 1.56 1.56 0 0 1-.56-.35 1.7 1.7 0 0 1-.37-.57 2.26 2.26 0 0 1-.18-.81Zm1.39-.1a1 1 0 0 0 .24.72.86.86 0 0 0 .64.24 2.2 2.2 0 0 0 .61-.09 3 3 0 0 0 .61-.27 2 2 0 0 0 .5-.4V17.8c-.39 0-.74.08-1.07.13a4.18 4.18 0 0 0-.83.21 1.19 1.19 0 0 0-.52.39 1 1 0 0 0-.18.6Zm6.86-4.96V15a4.44 4.44 0 0 1 .68-.56 2.51 2.51 0 0 1 .64-.31 2.63 2.63 0 0 1 .7-.1 4.07 4.07 0 0 1 .47 0 2.46 2.46 0 0 1 .47.1l-.23 1.24a3.4 3.4 0 0 0-.46-.09h-.44a2.42 2.42 0 0 0-.82.15 3.26 3.26 0 0 0-.9.56v4.91h-1.35v-6.73Zm7.06 9.38v-9.42h1.24v.64a5.19 5.19 0 0 1 1.12-.54 3.47 3.47 0 0 1 1.09-.19 1.9 1.9 0 0 1 1.68.87 4.45 4.45 0 0 1 .59 2.49 5.22 5.22 0 0 1-.34 2.05 2.34 2.34 0 0 1-1 1.2 3.43 3.43 0 0 1-1.73.39h-.62c-.21 0-.44-.06-.68-.11v2.65Zm2.56-3.55a1.9 1.9 0 0 0 1-.24 1.52 1.52 0 0 0 .6-.8 4.66 4.66 0 0 0 .2-1.49 4.72 4.72 0 0 0-.16-1.31 1.66 1.66 0 0 0-.47-.77 1.22 1.22 0 0 0-.76-.25 2.76 2.76 0 0 0-.51.05 2.86 2.86 0 0 0-.52.17 4.92 4.92 0 0 0-.57.32v4.16l.64.12a3.65 3.65 0 0 0 .55.04Zm3.81-.77a1.66 1.66 0 0 1 1-1.64 5.27 5.27 0 0 1 1.24-.36 17.19 17.19 0 0 1 1.75-.21v-.77a.93.93 0 0 0-.35-.78 1.81 1.81 0 0 0-1.05-.26h-.58l-.67.09c-.23 0-.47.1-.71.16l-.24-1.07a7.26 7.26 0 0 1 1.16-.27 7.61 7.61 0 0 1 1.11-.1 4.09 4.09 0 0 1 1.52.25 1.74 1.74 0 0 1 .88.73 2.27 2.27 0 0 1 .29 1.2v3a.84.84 0 0 0 .12.53.38.38 0 0 0 .29.14h.16a.85.85 0 0 0 .17-.06l.13 1a1.7 1.7 0 0 1-.45.19 1.72 1.72 0 0 1-.52.07 1.16 1.16 0 0 1-.75-.22 1.24 1.24 0 0 1-.4-.68 7.66 7.66 0 0 1-.66.45 3.14 3.14 0 0 1-.77.33 3.36 3.36 0 0 1-.9.05 2 2 0 0 1-.71-.12 1.56 1.56 0 0 1-.56-.35 1.68 1.68 0 0 1-.36-.57 2 2 0 0 1-.14-.73Zm1.39-.1a1 1 0 0 0 .24.72.86.86 0 0 0 .64.24 2.2 2.2 0 0 0 .61-.09 3 3 0 0 0 .61-.27 1.85 1.85 0 0 0 .51-.4V17.8c-.4 0-.75.08-1.07.13a4.29 4.29 0 0 0-.84.21 1.25 1.25 0 0 0-.52.39 1 1 0 0 0-.18.6Zm6.86-4.96V15a5 5 0 0 1 .68-.56 2.51 2.51 0 0 1 .64-.31 2.75 2.75 0 0 1 .7-.1 3.89 3.89 0 0 1 .47 0 2.46 2.46 0 0 1 .47.1l-.23 1.24a3.4 3.4 0 0 0-.46-.09h-.44a2.42 2.42 0 0 0-.82.15 3.09 3.09 0 0 0-.89.56v4.91h-1.36v-6.73Zm2.97 5.06a1.66 1.66 0 0 1 1-1.64 5.27 5.27 0 0 1 1.24-.36 17 17 0 0 1 1.74-.21v-.77a.91.91 0 0 0-.35-.78 1.76 1.76 0 0 0-1-.26h-.57l-.67.09c-.23 0-.47.1-.71.16l-.24-1.07a7.14 7.14 0 0 1 1.15-.27 7.62 7.62 0 0 1 1.12-.1 4.12 4.12 0 0 1 1.52.25 1.78 1.78 0 0 1 .88.73 2.37 2.37 0 0 1 .29 1.2v3a.84.84 0 0 0 .12.53.37.37 0 0 0 .29.14h.16a.85.85 0 0 0 .17-.06l.12 1a1.57 1.57 0 0 1-.44.18 1.66 1.66 0 0 1-.51.07 1.18 1.18 0 0 1-.76-.22 1.23 1.23 0 0 1-.39-.68 7.66 7.66 0 0 1-.66.45 3.51 3.51 0 0 1-.77.33 3.36 3.36 0 0 1-.92.12 2 2 0 0 1-.71-.12 1.56 1.56 0 0 1-.56-.35 1.7 1.7 0 0 1-.37-.57 2 2 0 0 1-.17-.79Zm1.39-.1a1 1 0 0 0 .24.72.86.86 0 0 0 .64.24 2.2 2.2 0 0 0 .61-.09 3 3 0 0 0 .61-.27 2 2 0 0 0 .5-.4V17.8c-.39 0-.75.08-1.07.13a4 4 0 0 0-.83.21 1.29 1.29 0 0 0-.53.39 1.06 1.06 0 0 0-.17.6Zm10.3-7.48v7.25a1.69 1.69 0 0 0 .09.62.47.47 0 0 0 .24.27 1 1 0 0 0 .34.06 1.37 1.37 0 0 0 .28 0 2.61 2.61 0 0 0 .33-.08l.14 1.05a2 2 0 0 1-.56.18 3.08 3.08 0 0 1-.61.06 2 2 0 0 1-.89-.18 1.22 1.22 0 0 1-.56-.62 3 3 0 0 1-.2-1.23v-7.38Zm1.78 7.58a1.66 1.66 0 0 1 1-1.64 5.27 5.27 0 0 1 1.24-.36 17 17 0 0 1 1.74-.21v-.77a.91.91 0 0 0-.35-.78 1.76 1.76 0 0 0-1.05-.26h-.57l-.67.09c-.23 0-.47.1-.71.16l-.24-1.07a7.14 7.14 0 0 1 1.15-.27 7.62 7.62 0 0 1 1.12-.1 4.12 4.12 0 0 1 1.52.25 1.78 1.78 0 0 1 .9.73 2.37 2.37 0 0 1 .29 1.2v3a.84.84 0 0 0 .12.53.37.37 0 0 0 .29.14h.16a.85.85 0 0 0 .17-.06l.12 1a1.57 1.57 0 0 1-.44.18 1.66 1.66 0 0 1-.51.07 1.18 1.18 0 0 1-.76-.22 1.23 1.23 0 0 1-.39-.68 7.66 7.66 0 0 1-.66.45 3.51 3.51 0 0 1-.77.33 3.36 3.36 0 0 1-.92.12 2 2 0 0 1-.71-.12 1.56 1.56 0 0 1-.56-.35 1.7 1.7 0 0 1-.37-.57 2 2 0 0 1-.14-.79Zm1.39-.1a1 1 0 0 0 .24.72.86.86 0 0 0 .64.24 2.2 2.2 0 0 0 .61-.09 3 3 0 0 0 .61-.27 2 2 0 0 0 .5-.4V17.8c-.39 0-.75.08-1.07.13a4 4 0 0 0-.83.21 1.29 1.29 0 0 0-.53.39 1.06 1.06 0 0 0-.17.6Z"/><path d="M87.84 1.38h.83v66.13h-.83zm16.96 55.56v-25h18.79v6H112v3.61h10.65v5.54H112v3.82h12.22v6Zm32.29.35h-3.78c-1.16 0-2.31-.13-3.31-.19s-2.09-.12-3.14-.16V32c1.19-.12 2.31-.2 3.36-.25s2.11-.08 3.19-.11 2.23 0 3.42 0a16.91 16.91 0 0 1 7.3 1.34 8.31 8.31 0 0 1 4.06 4.18 17.87 17.87 0 0 1 1.28 7.34 17 17 0 0 1-1.35 7.27 8.87 8.87 0 0 1-4.12 4.15 15.47 15.47 0 0 1-6.91 1.37Zm.65-5.68a3.85 3.85 0 0 0 2.34-.71 4.42 4.42 0 0 0 1.43-2.27 14.42 14.42 0 0 0 .49-4.13 15.82 15.82 0 0 0-.47-4.36 4 4 0 0 0-1.44-2.21 4.24 4.24 0 0 0-2.45-.68h-2.5c-.36 0-.69 0-1 .06v14.2h2.6c.26.1.61.1 1 .1Zm14.18-3V31.93h7.15v16.75a3.13 3.13 0 0 0 .16 1.07 1.74 1.74 0 0 0 .48.77 3 3 0 0 0 .8.54 3.59 3.59 0 0 0 1.07.3 10 10 0 0 0 1.24.07 9 9 0 0 0 1.34-.09 3.15 3.15 0 0 0 1.05-.32 2.66 2.66 0 0 0 .77-.55 2.14 2.14 0 0 0 .46-.77 3 3 0 0 0 .16-1V31.93h7.18v16.68a10.78 10.78 0 0 1-.44 3.25 7.05 7.05 0 0 1-1.34 2.47 6.74 6.74 0 0 1-2.2 1.68 11.78 11.78 0 0 1-3.07 1 21.63 21.63 0 0 1-4 .32 21 21 0 0 1-3.86-.32 11.39 11.39 0 0 1-3-1 6.66 6.66 0 0 1-2.18-1.68 6.74 6.74 0 0 1-1.32-2.47 10.77 10.77 0 0 1-.45-3.25Zm24.29-3.82a17.75 17.75 0 0 1 1.4-7.63 8.73 8.73 0 0 1 4.18-4.25 16.18 16.18 0 0 1 7-1.34c.88 0 1.69 0 2.41.07s1.4.12 2 .22 1.23.21 1.82.35 1.19.31 1.79.5l-1.43 5.75c-.74-.19-1.44-.34-2.11-.46a19.64 19.64 0 0 0-1.95-.25c-.63 0-1.26-.07-1.91-.07a8.57 8.57 0 0 0-2.69.37 3.86 3.86 0 0 0-1.81 1.2 5.14 5.14 0 0 0-1 2.16 15.68 15.68 0 0 0-.3 3.34 14.19 14.19 0 0 0 .28 3.08 4.2 4.2 0 0 0 1 2 4.14 4.14 0 0 0 1.81 1.07 9 9 0 0 0 2.64.34 22.84 22.84 0 0 0 3.29-.25q1.75-.26 3.21-.57l1.35 5.58c-.62.19-1.25.37-1.88.53a16.82 16.82 0 0 1-2 .41c-.7.11-1.48.19-2.32.25s-1.78.09-2.81.09a18 18 0 0 1-5.25-.69 9.17 9.17 0 0 1-3.75-2.17 8.8 8.8 0 0 1-2.18-3.84 19.93 19.93 0 0 1-.79-5.79Zm21.9 12.15 7.72-25.08h8.79l7.83 25.08h-8l-1-3.9h-6.75l-1 3.9Zm9.9-9.86h4.15l-2-9.79Zm14.36-2.29a17.75 17.75 0 0 1 1.4-7.63 8.73 8.73 0 0 1 4.23-4.25 16.18 16.18 0 0 1 7-1.34c.88 0 1.68 0 2.41.07s1.4.12 2 .22 1.23.21 1.82.35 1.19.31 1.79.5l-1.43 5.75c-.74-.19-1.44-.34-2.11-.46a19.64 19.64 0 0 0-1.95-.25c-.63 0-1.26-.07-1.91-.07a8.53 8.53 0 0 0-2.69.37 3.86 3.86 0 0 0-1.81 1.2 5.14 5.14 0 0 0-1 2.16 15.68 15.68 0 0 0-.3 3.34 14.19 14.19 0 0 0 .28 3.08 4.2 4.2 0 0 0 1 2 4.14 4.14 0 0 0 1.81 1.07 9 9 0 0 0 2.64.34 22.84 22.84 0 0 0 3.29-.25q1.75-.26 3.21-.57l1.3 5.58c-.62.19-1.25.37-1.88.53a16.82 16.82 0 0 1-2 .41c-.7.11-1.48.19-2.32.25s-1.78.09-2.81.09a18 18 0 0 1-5.25-.69 9.17 9.17 0 0 1-3.75-2.17 8.8 8.8 0 0 1-2.23-3.85 19.93 19.93 0 0 1-.74-5.78ZM246 56.94v-25h7.26v25Zm21.6.35a18.22 18.22 0 0 1-4.14-.43 9.9 9.9 0 0 1-3.29-1.37A7.89 7.89 0 0 1 257.8 53a12.48 12.48 0 0 1-1.47-3.64 21.37 21.37 0 0 1-.52-5 22.08 22.08 0 0 1 .49-4.89 12 12 0 0 1 1.41-3.63 8.06 8.06 0 0 1 2.36-2.5 9.25 9.25 0 0 1 3.28-1.34 18.79 18.79 0 0 1 4.25-.43 19.13 19.13 0 0 1 4.26.43 9.27 9.27 0 0 1 3.28 1.39 8 8 0 0 1 2.31 2.47 12 12 0 0 1 1.39 3.59 21.93 21.93 0 0 1 .48 4.87 23.3 23.3 0 0 1-.48 5 11.48 11.48 0 0 1-1.43 3.68 8.28 8.28 0 0 1-2.36 2.46 9.43 9.43 0 0 1-3.28 1.39 18.49 18.49 0 0 1-4.17.44Zm0-5.71a5.78 5.78 0 0 0 1.56-.2 2.72 2.72 0 0 0 1.2-.71 4.74 4.74 0 0 0 .85-1.34 7.82 7.82 0 0 0 .52-2.06 25.91 25.91 0 0 0 0-5.75 7.55 7.55 0 0 0-.52-2 4.37 4.37 0 0 0-.85-1.3 3.06 3.06 0 0 0-1.2-.72 5.4 5.4 0 0 0-1.56-.21 5.33 5.33 0 0 0-1.55.21 3.18 3.18 0 0 0-1.21.7 3.81 3.81 0 0 0-.88 1.31 7.63 7.63 0 0 0-.52 2.05 24.22 24.22 0 0 0-.16 2.91 24.69 24.69 0 0 0 .16 3 7.63 7.63 0 0 0 .52 2 3.64 3.64 0 0 0 .89 1.29 3.16 3.16 0 0 0 1.24.66 5.57 5.57 0 0 0 1.51.16Zm-2.71-21.23 2.82-6.82h6.9l-4.5 6.82Zm17.04 26.59v-25h6.86l8 13.93V31.93h6.39V57h-6.86l-8-13.5v13.44Z" class="cls-5"/></svg>